<svg width="3206" height="460" viewBox="0 0 3206 460" fill="none" xmlns="http://www.w3.org/2000/svg">
<g clip-path="url(#clip0_1_2)">
<path d="M206.934 319.945C206.934 331.827 204.492 342.976 199.609 353.393C194.889 363.809 188.46 372.924 180.322 380.736C172.347 388.549 162.988 394.734 152.246 399.291C141.667 403.686 130.436 405.883 118.555 405.883H93.4082C81.5267 405.883 70.2148 403.686 59.4727 399.291C48.8932 394.734 39.5345 388.549 31.3965 380.736C23.4212 372.924 16.9922 363.809 12.1094 353.393C7.38932 342.976 5.0293 331.827 5.0293 319.945V306.029L36.5234 300.902V319.945C36.5234 327.758 38.0697 335.082 41.1621 341.918C44.4173 348.591 48.7305 354.532 54.1016 359.74C59.4727 364.786 65.6576 368.773 72.6562 371.703C79.8177 374.633 87.3047 376.098 95.1172 376.098H117.09C124.902 376.098 132.308 374.633 139.307 371.703C146.305 368.773 152.49 364.786 157.861 359.74C163.232 354.532 167.464 348.591 170.557 341.918C173.812 335.082 175.439 327.758 175.439 319.945V309.447C175.439 297.403 173.079 287.393 168.359 279.418C163.639 271.443 157.373 264.688 149.561 259.154C141.748 253.458 132.878 248.656 122.949 244.75C113.184 240.844 103.092 236.938 92.6758 233.031C82.2591 229.125 72.0866 224.812 62.1582 220.092C52.3926 215.372 43.6035 209.512 35.791 202.514C27.9785 195.352 21.7122 186.645 16.9922 176.391C12.2721 166.137 9.91211 153.523 9.91211 138.549V131.957C9.91211 120.076 12.1094 108.926 16.5039 98.5098C21.0612 88.0931 27.2461 78.9785 35.0586 71.166C42.8711 63.3535 51.9857 57.25 62.4023 52.8555C72.9818 48.2982 84.2122 46.0195 96.0938 46.0195H118.555C130.436 46.0195 141.585 48.2982 152.002 52.8555C162.419 57.25 171.533 63.3535 179.346 71.166C187.158 78.9785 193.262 88.0931 197.656 98.5098C202.214 108.926 204.492 120.076 204.492 131.957V140.99L172.998 146.117V131.957C172.998 124.145 171.533 116.902 168.604 110.229C165.674 103.393 161.686 97.4518 156.641 92.4062C151.595 87.3607 145.654 83.373 138.818 80.4434C132.145 77.5137 124.902 76.0488 117.09 76.0488H97.5586C89.7461 76.0488 82.4219 77.5137 75.5859 80.4434C68.9128 83.373 62.972 87.3607 57.7637 92.4062C52.7181 97.4518 48.7305 103.393 45.8008 110.229C42.8711 116.902 41.4062 124.145 41.4062 131.957V138.549C41.4062 149.779 43.7663 159.219 48.4863 166.869C53.2064 174.519 59.4727 181.111 67.2852 186.645C75.0977 192.016 83.8867 196.736 93.6523 200.805C103.581 204.711 113.753 208.78 124.17 213.012C134.587 217.081 144.678 221.638 154.443 226.684C164.372 231.566 173.242 237.67 181.055 244.994C188.867 252.156 195.133 260.945 199.854 271.361C204.574 281.778 206.934 294.473 206.934 309.447V319.945ZM466.699 319.945C466.699 331.827 464.421 342.976 459.863 353.393C455.469 363.809 449.365 372.924 441.553 380.736C433.74 388.549 424.626 394.734 414.209 399.291C403.792 403.686 392.643 405.883 380.762 405.883H355.859C343.978 405.883 332.747 403.686 322.168 399.291C311.751 394.734 302.637 388.549 294.824 380.736C287.012 372.924 280.827 363.809 276.27 353.393C271.875 342.976 269.678 331.827 269.678 319.945V50.9023H301.172V319.945C301.172 327.758 302.637 335.082 305.566 341.918C308.496 348.591 312.484 354.532 317.529 359.74C322.738 364.786 328.678 368.773 335.352 371.703C342.188 374.633 349.512 376.098 357.324 376.098H379.297C387.109 376.098 394.352 374.633 401.025 371.703C407.861 368.773 413.802 364.786 418.848 359.74C423.893 354.532 427.881 348.591 430.811 341.918C433.74 335.082 435.205 327.758 435.205 319.945V50.9023H466.699V319.945ZM738.916 180.541C738.916 192.423 736.637 203.572 732.08 213.988C727.686 224.405 721.582 233.52 713.77 241.332C705.957 249.145 696.761 255.329 686.182 259.887C675.765 264.281 664.616 266.479 652.734 266.479H573.389V401H541.895V50.9023H652.734C664.616 50.9023 675.765 53.181 686.182 57.7383C696.761 62.1328 705.957 68.2363 713.77 76.0488C721.582 83.8613 727.686 93.0573 732.08 103.637C736.637 114.053 738.916 125.202 738.916 137.084V180.541ZM707.422 137.084C707.422 129.271 705.957 122.029 703.027 115.355C700.098 108.52 696.029 102.579 690.82 97.5332C685.775 92.3249 679.834 88.2559 672.998 85.3262C666.325 82.3965 659.082 80.9316 651.27 80.9316H573.389V236.449H651.27C659.082 236.449 666.325 234.984 672.998 232.055C679.834 229.125 685.775 225.137 690.82 220.092C696.029 215.046 700.098 209.187 703.027 202.514C705.957 195.678 707.422 188.354 707.422 180.541V137.084ZM799.219 401V50.9023H996.24V80.9316H830.713V211.059H964.746V241.088H830.713V370.971H996.24V401H799.219ZM1221.09 401L1126.12 251.586H1082.91V401H1051.42V50.9023H1162.5C1174.38 50.9023 1185.53 53.181 1195.95 57.7383C1206.36 62.1328 1215.48 68.2363 1223.29 76.0488C1231.1 83.8613 1237.21 93.0573 1241.6 103.637C1246.16 114.053 1248.44 125.202 1248.44 137.084V165.404C1248.44 177.286 1246.16 188.516 1241.6 199.096C1237.21 209.512 1231.1 218.627 1223.29 226.439C1215.48 234.252 1206.36 240.437 1195.95 244.994C1185.53 249.389 1174.38 251.586 1162.5 251.586L1257.47 401H1221.09ZM1216.94 137.084C1216.94 129.271 1215.48 122.029 1212.55 115.355C1209.62 108.52 1205.63 102.579 1200.59 97.5332C1195.54 92.3249 1189.6 88.2559 1182.76 85.3262C1176.09 82.3965 1168.85 80.9316 1161.04 80.9316H1082.91V221.557H1161.04C1168.85 221.557 1176.09 220.092 1182.76 217.162C1189.6 214.232 1195.54 210.245 1200.59 205.199C1205.63 199.991 1209.62 194.05 1212.55 187.377C1215.48 180.541 1216.94 173.217 1216.94 165.404V137.084ZM1483.3 401V241.088H1349.27V401H1317.77V50.9023H1349.27V211.059H1483.3V50.9023H1514.79V401H1483.3ZM1595.12 401V50.9023H1792.14V80.9316H1626.61V211.059H1760.64V241.088H1626.61V370.971H1792.14V401H1595.12ZM2016.99 401L1922.02 251.586H1878.81V401H1847.31V50.9023H1958.4C1970.28 50.9023 1981.43 53.181 1991.85 57.7383C2002.26 62.1328 2011.38 68.2363 2019.19 76.0488C2027 83.8613 2033.11 93.0573 2037.5 103.637C2042.06 114.053 2044.34 125.202 2044.34 137.084V165.404C2044.34 177.286 2042.06 188.516 2037.5 199.096C2033.11 209.512 2027 218.627 2019.19 226.439C2011.38 234.252 2002.26 240.437 1991.85 244.994C1981.43 249.389 1970.28 251.586 1958.4 251.586L2053.37 401H2016.99ZM2012.84 137.084C2012.84 129.271 2011.38 122.029 2008.45 115.355C2005.52 108.52 2001.53 102.579 1996.48 97.5332C1991.44 92.3249 1985.5 88.2559 1978.66 85.3262C1971.99 82.3965 1964.75 80.9316 1956.93 80.9316H1878.81V221.557H1956.93C1964.75 221.557 1971.99 220.092 1978.66 217.162C1985.5 214.232 1991.44 210.245 1996.48 205.199C2001.53 199.991 2005.52 194.05 2008.45 187.377C2011.38 180.541 2012.84 173.217 2012.84 165.404V137.084ZM2305.57 319.945C2305.57 331.827 2303.29 342.976 2298.73 353.393C2294.34 363.809 2288.23 372.924 2280.42 380.736C2272.61 388.549 2263.49 394.734 2253.08 399.291C2242.66 403.686 2231.51 405.883 2219.63 405.883H2194.73C2182.85 405.883 2171.61 403.686 2161.04 399.291C2150.62 394.734 2141.5 388.549 2133.69 380.736C2125.88 372.924 2119.69 363.809 2115.14 353.393C2110.74 342.976 2108.54 331.827 2108.54 319.945V131.957C2108.54 120.076 2110.74 108.926 2115.14 98.5098C2119.69 88.0931 2125.88 78.9785 2133.69 71.166C2141.5 63.3535 2150.62 57.25 2161.04 52.8555C2171.61 48.2982 2182.85 46.0195 2194.73 46.0195H2219.63C2231.51 46.0195 2242.66 48.2982 2253.08 52.8555C2263.49 57.25 2272.61 63.3535 2280.42 71.166C2288.23 78.9785 2294.34 88.0931 2298.73 98.5098C2303.29 108.926 2305.57 120.076 2305.57 131.957V319.945ZM2274.07 131.957C2274.07 124.145 2272.61 116.902 2269.68 110.229C2266.75 103.393 2262.76 97.4518 2257.71 92.4062C2252.67 87.3607 2246.73 83.373 2239.89 80.4434C2233.22 77.5137 2225.98 76.0488 2218.16 76.0488H2196.19C2188.38 76.0488 2181.05 77.5137 2174.22 80.4434C2167.55 83.373 2161.6 87.3607 2156.4 92.4062C2151.35 97.4518 2147.36 103.393 2144.43 110.229C2141.5 116.902 2140.04 124.145 2140.04 131.957V319.945C2140.04 327.758 2141.5 335.082 2144.43 341.918C2147.36 348.591 2151.35 354.532 2156.4 359.74C2161.6 364.786 2167.55 368.773 2174.22 371.703C2181.05 374.633 2188.38 376.098 2196.19 376.098H2218.16C2225.98 376.098 2233.22 374.633 2239.89 371.703C2246.73 368.773 2252.67 364.786 2257.71 359.74C2262.76 354.532 2266.75 348.591 2269.68 341.918C2272.61 335.082 2274.07 327.758 2274.07 319.945V131.957Z" fill="black"/>
<path d="M2391 407.5V40H2653.5V92.5H2706V145H2758.5V302.5H2706V355H2653.5V407.5H2391ZM2496 355H2601V302.5H2653.5V145H2601V92.5H2496V355ZM2811 407.5V40H3126V92.5H3178.5V197.5H3126V250H3178.5V355H3126V407.5H2811ZM2916 197.5H3073.5V92.5H2916V197.5ZM2916 355H3073.5V250H2916V355Z" fill="black"/>
</g>
<defs>
<clipPath id="clip0_1_2">
<rect width="3206" height="460" fill="white"/>
</clipPath>
</defs>
</svg>
